<?xml version="1.0" encoding="UTF-8" standalone="no"?>
<!-- Created with Inkscape (http://www.inkscape.org/) -->

<svg
   width="12.097103mm"
   height="11.928479mm"
   viewBox="0 0 12.097103 11.928479"
   version="1.1"
   id="svg670"
   xmlns="http://www.w3.org/2000/svg"
   xmlns:svg="http://www.w3.org/2000/svg">
  <defs
     id="defs667">
    <clipPath
       clipPathUnits="userSpaceOnUse"
       id="clipPath554">
      <path
         d="M 0,0 H 1700 V 1000 H 0 Z"
         id="path552" />
    </clipPath>
  </defs>
  <g
     id="layer1"
     transform="translate(-63.431445,-141.99577)">
    <path
       d="M 75.440353,153.83605 H 63.519639 v -11.75209 h 11.920714 z"
       style="fill:#004a98;fill-opacity:1;fill-rule:nonzero;stroke:#004a98;stroke-width:0.176389;stroke-linecap:butt;stroke-linejoin:miter;stroke-miterlimit:10;stroke-dasharray:none;stroke-opacity:1"
       id="path546" />
    <g
       id="g548"
       transform="matrix(0.35277777,0,0,-0.35277777,-159.06867,331.80326)">
      <g
         id="g550"
         clip-path="url(#clipPath554)">
        <g
           id="g556"
           transform="translate(655.0597,518.6986)">
          <path
             d="m 0,0 c -0.323,0 -0.656,-0.044 -0.991,-0.13 l -0.027,-0.007 -0.01,0.026 -0.915,2.399 0.054,-10e-4 0.514,-0.016 c 0.077,-0.002 0.264,-0.003 0.476,0.02 0.451,0.048 0.865,0.41 0.963,0.843 0.151,0.661 -0.418,1.307 -1.027,1.443 -0.094,0.021 -0.577,0.128 -1.07,0.211 -0.828,0.139 -0.879,0.308 -0.915,0.432 -0.321,1.077 -0.958,2.047 -1.436,2.671 -0.41,0.537 -0.915,0.843 -1.5,0.911 -1.075,0.122 -1.99,-0.625 -1.999,-0.632 l -3.435,-2.554 c -0.005,-0.002 -0.007,-0.004 -0.009,-0.006 -0.452,-0.324 -0.716,-0.755 -0.787,-1.282 -0.134,-0.992 0.455,-1.976 0.817,-2.474 l 0.012,-0.016 -0.01,-0.017 -1.353,-2.234 -0.026,0.012 C -13.217,-0.135 -13.801,0 -14.411,0 c -2.162,0 -3.921,-1.735 -3.921,-3.867 0,-2.132 1.759,-3.866 3.921,-3.866 2.162,0 3.921,1.734 3.921,3.866 0,1.205 -0.557,2.32 -1.526,3.06 l -0.022,0.016 1.217,2.009 0.027,-0.037 c 0.436,-0.587 1.215,-1.62 1.539,-1.959 0.658,-0.685 0.471,-1.819 0.359,-2.275 -0.225,-0.925 -0.371,-1.834 -0.377,-1.873 l -0.003,-0.013 c -0.04,-0.353 0.059,-0.695 0.279,-0.969 0.22,-0.275 0.536,-0.448 0.889,-0.488 0.352,-0.043 0.701,0.056 0.979,0.274 0.269,0.21 0.443,0.509 0.491,0.843 0.018,0.061 0.41,1.406 0.762,2.346 0.363,0.964 0.706,1.874 0.169,2.882 -0.028,0.053 -0.062,0.114 -0.098,0.179 l -0.021,0.038 0.042,0.007 3.639,0.628 0.452,-1.185 -0.025,-0.012 c -1.359,-0.657 -2.203,-1.987 -2.203,-3.471 0,-2.132 1.759,-3.866 3.921,-3.866 2.162,0 3.921,1.734 3.921,3.866 C 3.921,-1.735 2.162,0 0,0 m -11.211,-3.867 c 0,-1.74 -1.435,-3.155 -3.2,-3.155 -1.765,0 -3.201,1.415 -3.201,3.155 0,1.741 1.436,3.156 3.201,3.156 0.475,0 0.933,-0.101 1.361,-0.299 l 0.031,-0.015 -1.58,-2.609 c -0.102,-0.168 -0.046,-0.386 0.125,-0.487 0.17,-0.1 0.391,-0.045 0.493,0.123 l 1.571,2.593 0.028,-0.023 c 0.744,-0.603 1.171,-1.492 1.171,-2.439 M -2.44,1.471 -6.206,0.821 -6.217,0.84 c -0.47,0.795 -1.082,1.789 -1.405,2.311 l -0.014,0.023 1.539,1.203 0.019,-0.028 C -5.83,3.971 -5.449,3.389 -5.249,3.083 -5.244,3.075 -5.239,3.067 -5.233,3.06 -5.227,3.052 -5.221,3.044 -5.214,3.036 -4.746,2.493 -3.649,2.368 -2.744,2.32 L -2.724,2.319 -2.717,2.3 -2.403,1.478 Z m -2.212,2.01 c -0.321,0.492 -1.055,1.61 -1.055,1.61 -0.055,0.084 -0.144,0.142 -0.244,0.158 -0.099,0.016 -0.203,-0.01 -0.282,-0.072 l -2.1,-1.641 C -8.476,3.424 -8.512,3.225 -8.417,3.072 -8.408,3.058 -7.426,1.478 -6.788,0.394 l 0.004,-0.011 c 10e-4,-0.007 10e-4,-0.014 0,-0.018 0.015,-0.091 0.066,-0.17 0.143,-0.226 L -6.632,0.13 c 0.128,-0.222 0.222,-0.389 0.288,-0.511 0.368,-0.694 0.172,-1.298 -0.207,-2.306 -0.354,-0.941 -0.742,-2.265 -0.785,-2.413 -0.003,-0.012 -0.006,-0.023 -0.009,-0.035 -0.002,-0.012 -0.004,-0.023 -0.005,-0.034 -0.02,-0.157 -0.1,-0.298 -0.226,-0.396 -0.108,-0.085 -0.241,-0.13 -0.38,-0.13 -0.023,0 -0.046,0.002 -0.069,0.004 -0.162,0.018 -0.307,0.098 -0.408,0.224 -0.099,0.124 -0.144,0.278 -0.128,0.435 0.016,0.097 0.157,0.956 0.366,1.813 0.293,1.202 0.097,2.27 -0.537,2.93 -0.424,0.443 -1.752,2.258 -1.824,2.356 l -0.012,0.005 -0.003,0.014 c -0.443,0.544 -0.926,1.431 -0.829,2.149 0.044,0.326 0.201,0.584 0.482,0.79 0.007,0.004 0.012,0.008 0.018,0.012 l 3.462,2.574 c 0.006,0.005 0.719,0.575 1.475,0.485 0.385,-0.046 0.714,-0.253 1.005,-0.633 0.441,-0.577 1.029,-1.468 1.318,-2.442 0.156,-0.525 0.558,-0.778 1.486,-0.933 0.43,-0.073 0.859,-0.165 1.023,-0.201 L -1.124,3.885 C -0.842,3.822 -0.588,3.51 -0.638,3.29 -0.672,3.142 -0.848,3.011 -0.977,2.997 -1.151,2.978 -1.301,2.98 -1.344,2.98 -1.436,2.984 -1.531,2.988 -1.63,2.991 L -1.876,2.998 C -2.768,3.023 -4.262,3.065 -4.652,3.481 M 0,-7.022 c -1.765,0 -3.2,1.415 -3.2,3.155 0,1.181 0.663,2.254 1.73,2.801 l 0.031,0.016 0.013,-0.032 1.09,-2.859 c 0.053,-0.138 0.188,-0.23 0.337,-0.23 0.043,0 0.086,0.008 0.127,0.023 0.186,0.069 0.28,0.274 0.21,0.457 l -1.101,2.887 0.034,0.008 c 0.246,0.057 0.492,0.085 0.729,0.085 1.765,0 3.201,-1.415 3.201,-3.156 0,-1.74 -1.436,-3.155 -3.201,-3.155"
             style="fill:#ffffff;fill-opacity:1;fill-rule:nonzero;stroke:none"
             id="path558" />
        </g>
        <g
           id="g560"
           transform="translate(652.0191,526.5645)">
          <path
             d="m 0,0 c 0.348,-0.168 0.72,-0.253 1.105,-0.253 0.958,0 1.85,0.547 2.272,1.392 L 3.38,1.145 C 3.991,2.379 3.47,3.874 2.219,4.478 0.967,5.08 -0.549,4.567 -1.161,3.332 -1.457,2.734 -1.499,2.059 -1.28,1.429 -1.061,0.799 -0.606,0.292 0,0 m -0.513,3.021 c 0.3,0.607 0.939,0.999 1.626,0.999 0.275,0 0.541,-0.061 0.79,-0.181 C 2.797,3.408 3.169,2.339 2.733,1.457 2.42,0.826 1.775,0.458 1.105,0.458 0.84,0.458 0.571,0.516 0.316,0.638 -0.117,0.847 -0.442,1.21 -0.599,1.66 -0.756,2.11 -0.725,2.593 -0.513,3.021"
             style="fill:#ffffff;fill-opacity:1;fill-rule:nonzero;stroke:none"
             id="path562" />
        </g>
      </g>
    </g>
  </g>
</svg>
